#!OML:ASF I:\Actors\actors\Patient Classification 2\Patient 1\Session 1\actor1.ASF
:FULLY-SPECIFIED
:DEGREES
812
root -0.186847 18.6689 5.19378 6.60881 -3.77332 0.754379
lowerback 23.6972 -0.373413 -1.22928
upperback 9.72548 -0.799098 -0.64169
thorax -2.51633 -0.420827 0.211836
lowerneck -22.5303 -0.602154 -1.07309
upperneck 16.2076 -1.26035 3.66648
head 8.79834 -0.244651 1.25712
rclavicle -5.76476e-015 1.39149e-015
rhumerus 39.1362 79.4677 -51.914
rradius 115.085
rwrist -39.2509
rhand 19.1709 -21.5658
rfingers 7.12502
rthumb 43.762 -45.5369
lclavicle -5.76476e-015 1.39149e-015
lhumerus -47.7448 -67.8525 141.002
lradius 124.966
lwrist 17.4191
lhand 0.344784 -19.8199
lfingers 7.12502
lthumb 25.9206 8.43303
rfemur -6.29956 3.72544 10.8825
rtibia 9.899
rfoot -17.0753 -10.7393
rtoes -16.6368
lfemur -18.3528 3.78223 -16.7509
ltibia 30.1639
lfoot -17.624 4.36192
ltoes -56.4505
813
root -0.210616 18.6545 5.19009 6.22848 -3.58313 0.183239
lowerback 24.0969 -0.543418 -0.384813
upperback 9.84279 -0.837195 -0.595884
thorax -2.59508 -0.420542 -0.207758
lowerneck -22.7065 -0.600422 -1.07512
upperneck 16.1527 -1.2586 3.68234
head 8.80973 -0.240914 1.26324
rclavicle 1.25234e-014 3.97569e-015
rhumerus 37.9539 79.7217 -52.9223
rradius 114.551
rwrist -39.2936
rhand 20.5591 -21.8472
rfingers 7.12502
rthumb 45.0556 -45.3249
lclavicle 1.25234e-014 3.97569e-015
lhumerus -47.6217 -67.7757 140.858
lradius 124.586
lwrist 17.6038
lhand 0.171162 -19.5812
lfingers 7.12502
lthumb 25.7543 8.69586
rfemur -6.55871 3.59246 11.6411
rtibia 11.443
rfoot -17.5819 -10.312
rtoes -17.1958
lfemur -17.9739 3.92238 -15.9672
ltibia 30.3298
lfoot -17.546 3.99244
ltoes -56.3651
814
root -0.257863 18.6477 5.19581 6.07827 -3.6035 0.39647
lowerback 24.104 -0.48401 -0.581543
upperback 9.91873 -0.809586 -0.726482
thorax -2.51436 -0.408964 -0.243605
lowerneck -22.7449 -0.554877 -0.954882
upperneck 16.0952 -1.21286 3.58507
head 8.7938 -0.222935 1.21632
rclavicle -1.59028e-015 9.14409e-015
rhumerus 36.6684 80.0733 -54.0594
rradius 113.89
rwrist -39.5575
rhand 21.5216 -22.0614
rfingers 7.12502
rthumb 45.9499 -45.1768
lclavicle -1.59028e-015 9.14409e-015
lhumerus -47.7911 -67.5992 140.813
lradius 124.239
lwrist 17.8998
lhand -0.0628591 -19.2389
lfingers 7.12502
lthumb 25.5302 9.07052
rfemur -6.72101 3.56026 11.573
rtibia 12.134
rfoot -17.8034 -10.0427
rtoes -16.807
lfemur -17.8657 4.11858 -16.0209
ltibia 30.4627
lfoot -17.438 3.81115
ltoes -56.5084
815
root -0.305468 18.6478 5.20688 5.89718 -3.47586 0.403019
lowerback 24.1283 -0.483274 -0.574246
upperback 9.98116 -0.805872 -0.726044
thorax -2.45781 -0.406817 -0.248492
lowerneck -22.6644 -0.498778 -0.807324
upperneck 16.1096 -1.12778 3.31913
head 8.77974 -0.20432 1.11268
rclavicle -1.78906e-014 7.55382e-015
rhumerus 35.0442 80.6106 -55.3482
rradius 113.145
rwrist -39.7631
rhand 22.1242 -22.1616
rfingers 7.12502
rthumb 46.5085 -45.0413
lclavicle -1.78906e-014 7.55382e-015
lhumerus -48.3716 -67.3008 141.187
lradius 123.916
lwrist 18.301
lhand -0.445306 -18.9093
lfingers 7.12502
lthumb 25.1638 9.45207
rfemur -6.4808 3.43497 11.7575
rtibia 12.2224
rfoot -17.8554 -9.9315
rtoes -16.2559
lfemur -17.6722 4.14474 -15.8341
ltibia 30.5288
lfoot -17.2988 3.70851
ltoes -56.7126
816
root -0.356366 18.6568 5.22182 5.70928 -3.19542 0.296627
lowerback 24.155 -0.52538 -0.497687
upperback 10.0341 -0.83632 -0.628628
thorax -2.41243 -0.421544 -0.179808
lowerneck -22.6264 -0.462514 -0.704989
upperneck 16.2444 -1.06655 3.0916
head 8.81588 -0.19396 1.02714
rclavicle 4.37326e-015 -5.96354e-016
rhumerus 32.4359 81.1539 -57.5311
rradius 112.377
rwrist -39.7453
rhand 23.4312 -22.6615
rfingers 7.12502
rthumb 47.7171 -45.0053
lclavicle 4.37326e-015 -5.96354e-016
lhumerus -48.8541 -66.9096 141.526
lradius 123.539
lwrist 18.8688
lhand -0.494486 -18.9771
lfingers 7.12502
lthumb 25.1167 9.39088
rfemur -6.03118 3.2576 12.0917
rtibia 12.0026
rfoot -17.846 -10.0098
rtoes -16.3304
lfemur -17.3939 3.96028 -15.4959
ltibia 30.4711
lfoot -17.0941 3.59818
ltoes -56.6814
817
root -0.403315 18.6722 5.23483 5.57464 -2.83913 0.149849
lowerback 24.1894 -0.618924 -0.226082
upperback 10.0522 -0.892165 -0.573079
thorax -2.4125 -0.442375 -0.260559
lowerneck -22.6746 -0.467063 -0.602914
upperneck 16.5316 -1.09161 2.98783
head 8.92262 -0.207965 0.973109
rclavicle -2.78299e-015 2.5842e-015
rhumerus 28.7461 81.4849 -60.8692
rradius 111.663
rwrist -39.9847
rhand 25.1212 -23.8122
rfingers 7.12502
rthumb 49.2724 -45.4087
lclavicle -2.78299e-015 2.5842e-015
lhumerus -49.4318 -66.4796 141.891
lradius 123.146
lwrist 19.5081
lhand -0.12854 -19.2386
lfingers 7.12502
lthumb 25.4672 9.07976
rfemur -5.36393 2.9346 12.4527
rtibia 11.2152
rfoot -17.5738 -10.2434
rtoes -16.6411
lfemur -17.1859 3.72419 -15.1398
ltibia 30.3759
lfoot -16.8051 3.55704
ltoes -56.7722
818
root -0.438263 18.6901 5.24333 5.54498 -2.43703 -0.0236687
lowerback 24.214 -0.771584 0.285798
upperback 10.0087 -0.973397 -0.561548
thorax -2.48025 -0.468416 -0.518751
lowerneck -22.8026 -0.50142 -0.534642
upperneck 16.9285 -1.17743 3.01069
head 9.08405 -0.236255 0.960267
rclavicle 4.77083e-015 1.78906e-015
rhumerus 25.5574 81.6163 -63.7389
rradius 111.084
rwrist -40.7866
rhand 25.3135 -25.0193
rfingers 7.12502
rthumb 49.4488 -46.5267
lclavicle 4.77083e-015 1.78906e-015
lhumerus -50.3016 -65.9601 142.541
lradius 122.718
lwrist 20.2242
lhand 0.379748 -19.333
lfingers 7.12502
lthumb 25.9541 8.915
rfemur -4.68393 2.37282 12.7867
rtibia 10.1083
rfoot -17.0723 -10.4185
rtoes -16.5538
lfemur -17.1379 3.26421 -14.8097
ltibia 30.241
lfoot -16.4815 3.78217
ltoes -57.0338
